<svg id="Calque_1" data-name="Calque 1" xmlns="http://www.w3.org/2000/svg" viewBox="0 0 84.5 91.32"><defs><style>.cls-1{fill:#d1dfe2;}.cls-2{fill:#fff;}.cls-3{fill:#125260;}.cls-4{fill:#ec6537;}.cls-5{fill:#8285b3;}.cls-6{fill:#6cbfa1;}.cls-7{fill:#89a5ad;}</style></defs><circle class="cls-1" cx="45.19" cy="47.23" r="39.3"/><rect class="cls-2" x="24.85" y="20.22" width="40.56" height="54.46" rx="5.47"/><path class="cls-3" d="M82.79,103H53.17a6,6,0,0,1-6-6V53.51a6,6,0,0,1,6-6H82.79a6,6,0,0,1,6,6V97A6,6,0,0,1,82.79,103ZM53.17,48.54a5,5,0,0,0-5,5V97a5,5,0,0,0,5,5H82.79a5,5,0,0,0,5-5V53.51a5,5,0,0,0-5-5Z" transform="translate(-22.86 -27.82)"/><circle class="cls-4" cx="4.78" cy="41.11" r="4.78"/><circle class="cls-3" cx="47.24" cy="5.76" r="4.78"/><circle class="cls-5" cx="68.31" cy="86.54" r="4.78"/><circle class="cls-6" cx="8.68" cy="74.45" r="2.79"/><circle class="cls-6" cx="39.61" cy="1.62" r="1.62"/><circle class="cls-2" cx="9.57" cy="50.07" r="1.62"/><circle class="cls-2" cx="73.09" cy="28.43" r="2.79"/><path class="cls-4" d="M58.9,61.57l1.79-1.79a.75.75,0,0,0-1-1.06l-1.79,1.79-1.79-1.79A.75.75,0,0,0,55,59.78l1.79,1.79L55,63.36a.75.75,0,0,0,1.06,1l1.79-1.79,1.79,1.79a.73.73,0,0,0,.53.22.7.7,0,0,0,.52-.22.72.72,0,0,0,0-1Z" transform="translate(-22.86 -27.82)"/><path class="cls-4" d="M61.14,72.46a.74.74,0,0,0-1,0L56.74,75.8l-1.13-1.13a.74.74,0,0,0-1,0,.75.75,0,0,0,0,1.06l1.62,1.62a.74.74,0,0,0,.53.22h.06a.73.73,0,0,0,.53-.22l3.84-3.84A.74.74,0,0,0,61.14,72.46Z" transform="translate(-22.86 -27.82)"/><path class="cls-7" d="M81.78,62.4H65.53c-.28,0-.5-.53-.5-1.17s.22-1.17.5-1.17H81.78c.28,0,.5.52.5,1.17S82.06,62.4,81.78,62.4Z" transform="translate(-22.86 -27.82)"/><path class="cls-7" d="M81.78,76.07H65.53c-.28,0-.5-.52-.5-1.17s.22-1.17.5-1.17H81.78c.28,0,.5.53.5,1.17S82.06,76.07,81.78,76.07Z" transform="translate(-22.86 -27.82)"/><path class="cls-7" d="M81.78,89.75H65.53c-.28,0-.5-.52-.5-1.17s.22-1.17.5-1.17H81.78c.28,0,.5.52.5,1.17S82.06,89.75,81.78,89.75Z" transform="translate(-22.86 -27.82)"/><path class="cls-4" d="M61.14,86.13a.74.74,0,0,0-1,0l-3.35,3.35-1.13-1.13a.74.74,0,0,0-1,1.05L56.18,91a.79.79,0,0,0,.53.22h.06A.77.77,0,0,0,57.3,91l3.84-3.84A.75.75,0,0,0,61.14,86.13Z" transform="translate(-22.86 -27.82)"/></svg>