<?xml version="1.0" encoding="UTF-8" standalone="no"?>
<!-- Created with Inkscape (http://www.inkscape.org/) -->

<svg
   xmlns:dc="http://purl.org/dc/elements/1.1/"
   xmlns:cc="http://creativecommons.org/ns#"
   xmlns:rdf="http://www.w3.org/1999/02/22-rdf-syntax-ns#"
   xmlns:svg="http://www.w3.org/2000/svg"
   xmlns="http://www.w3.org/2000/svg"
   xmlns:sodipodi="http://sodipodi.sourceforge.net/DTD/sodipodi-0.dtd"
   xmlns:inkscape="http://www.inkscape.org/namespaces/inkscape"
   width="16px"
   height="16px"
   id="svg7283"
   version="1.1"
   inkscape:version="0.48.1 "
   sodipodi:docname="Nouveau document 15">
  <defs
     id="defs7285">
    <inkscape:perspective
       sodipodi:type="inkscape:persp3d"
       inkscape:vp_x="3.4374626 : 2.7097206 : 1"
       inkscape:vp_y="0 : 1000 : 0"
       inkscape:vp_z="13.488946 : 7.9512417 : 1"
       inkscape:persp3d-origin="8 : 5.3333333 : 1"
       id="perspective7297" />
  </defs>
  <sodipodi:namedview
     id="base"
     pagecolor="#ffffff"
     bordercolor="#666666"
     borderopacity="1.0"
     inkscape:pageopacity="0.0"
     inkscape:pageshadow="2"
     inkscape:zoom="41.018628"
     inkscape:cx="8.3421105"
     inkscape:cy="8.3571462"
     inkscape:current-layer="layer1"
     showgrid="true"
     inkscape:grid-bbox="true"
     inkscape:document-units="px"
     inkscape:window-width="1600"
     inkscape:window-height="838"
     inkscape:window-x="-8"
     inkscape:window-y="-8"
     inkscape:window-maximized="1">
    <inkscape:grid
       type="xygrid"
       id="grid7291" />
  </sodipodi:namedview>
  <metadata
     id="metadata7288">
    <rdf:RDF>
      <cc:Work
         rdf:about="">
        <dc:format>image/svg+xml</dc:format>
        <dc:type
           rdf:resource="http://purl.org/dc/dcmitype/StillImage" />
        <dc:title></dc:title>
      </cc:Work>
    </rdf:RDF>
  </metadata>
  <g
     id="layer1"
     inkscape:label="Layer 1"
     inkscape:groupmode="layer">
    <path
       d="m 14,5 a 2,2 0 1 1 -4,0 2,2 0 1 1 4,0 z"
       sodipodi:ry="2"
       sodipodi:rx="2"
       sodipodi:cy="5"
       sodipodi:cx="12"
       id="path7907"
       style="fill:#ff7f2a;fill-opacity:1;stroke:none"
       sodipodi:type="arc" />
    <g
       id="g7915"
       style="fill:#ff9955">
      <rect
         style="fill:#ff9955;fill-rule:evenodd;stroke:none"
         id="rect7905"
         width="1.1496639"
         height="2"
         x="11.425168"
         y="2"
         ry="0.51011568"
         rx="0.57483196" />
      <path
         d="m 14,5 a 2,2 0 1 1 -4,0 2,2 0 1 1 4,0 z"
         sodipodi:ry="2"
         sodipodi:rx="2"
         sodipodi:cy="5"
         sodipodi:cx="12"
         id="path7913"
         style="fill:#ff9955;fill-opacity:1;stroke:none"
         sodipodi:type="arc" />
    </g>
    <g
       transform="translate(-1,-7)"
       id="g7935">
      <rect
         rx="0.57483196"
         ry="0.51011568"
         y="7"
         x="7.925168"
         height="1.0202314"
         width="1.1496639"
         id="rect7937"
         style="fill:#008000;fill-rule:evenodd;stroke:none" />
      <path
         transform="translate(2,1.5)"
         d="m 9,8.5 a 2.5,2.5 0 1 1 -5,0 2.5,2.5 0 1 1 5,0 z"
         sodipodi:ry="2.5"
         sodipodi:rx="2.5"
         sodipodi:cy="8.5"
         sodipodi:cx="6.5"
         id="path7939"
         style="fill:#ff2a2a;fill-opacity:1;stroke:none"
         sodipodi:type="arc" />
    </g>
    <rect
       style="color:#000000;fill:#ff0000;fill-opacity:1;fill-rule:evenodd;stroke:none;stroke-width:1px;marker:none;visibility:visible;display:inline;overflow:visible;enable-background:accumulate"
       id="rect7947"
       width="16"
       height="3"
       x="2.1094237e-015"
       y="13"
       rx="0"
       ry="1.4949816" />
    <rect
       style="color:#000000;fill:#005500;fill-opacity:1;fill-rule:evenodd;stroke:none;stroke-width:1px;marker:none;visibility:visible;display:inline;overflow:visible;enable-background:accumulate"
       id="rect7949"
       width="3.0196867"
       height="16.800344"
       x="-3.4559093"
       y="1.3524379"
       rx="0.9927873"
       ry="1.4885135"
       transform="matrix(0.46912212,-0.88313331,0.89071867,0.45455501,0,0)" />
    <g
       id="g7951"
       transform="translate(-2,-2)">
      <rect
         style="fill:#008000;fill-rule:evenodd;stroke:none"
         id="rect7953"
         width="1.1496639"
         height="1.0202314"
         x="7.925168"
         y="7"
         ry="0.51011568"
         rx="0.57483196" />
      <path
         sodipodi:type="arc"
         style="fill:#ff2a2a;fill-opacity:1;stroke:none"
         id="path7955"
         sodipodi:cx="6.5"
         sodipodi:cy="8.5"
         sodipodi:rx="2.5"
         sodipodi:ry="2.5"
         d="M 9,8.5 C 9,9.8807119 7.8807119,11 6.5,11 5.1192881,11 4,9.8807119 4,8.5 4,7.1192881 5.1192881,6 6.5,6 7.8807119,6 9,7.1192881 9,8.5 z"
         transform="translate(2,1.5)" />
    </g>
    <g
       transform="translate(-9.574832,1)"
       id="g7957"
       style="fill:#ffb380">
      <rect
         style="fill:#ffb380;fill-rule:evenodd;stroke:none"
         id="rect7959"
         width="1.1496639"
         height="2"
         x="11.425168"
         y="2"
         ry="0.51011568"
         rx="0.57483196" />
      <path
         d="m 14,5 c 0,1.1045695 -0.895431,2 -2,2 -1.104569,0 -2,-0.8954305 -2,-2 0,-1.1045695 0.895431,-2 2,-2 1.104569,0 2,0.8954305 2,2 z"
         sodipodi:ry="2"
         sodipodi:rx="2"
         sodipodi:cy="5"
         sodipodi:cx="12"
         id="path7961"
         style="fill:#ffb380;fill-opacity:1;stroke:none"
         sodipodi:type="arc" />
    </g>
    <g
       transform="translate(3,0)"
       id="g7963">
      <rect
         rx="0.57483196"
         ry="0.51011568"
         y="7"
         x="7.925168"
         height="1.0202314"
         width="1.1496639"
         id="rect7965"
         style="fill:#008000;fill-rule:evenodd;stroke:none" />
      <path
         transform="translate(2,1.5)"
         d="M 9,8.5 C 9,9.8807119 7.8807119,11 6.5,11 5.1192881,11 4,9.8807119 4,8.5 4,7.1192881 5.1192881,6 6.5,6 7.8807119,6 9,7.1192881 9,8.5 z"
         sodipodi:ry="2.5"
         sodipodi:rx="2.5"
         sodipodi:cy="8.5"
         sodipodi:cx="6.5"
         id="path7967"
         style="fill:#ff2a2a;fill-opacity:1;stroke:none"
         sodipodi:type="arc" />
    </g>
  </g>
</svg>
