<?xml version="1.0" encoding="UTF-8" standalone="no"?>
<!-- Created with Inkscape (http://www.inkscape.org/) -->

<svg
   xmlns:dc="http://purl.org/dc/elements/1.1/"
   xmlns:cc="http://creativecommons.org/ns#"
   xmlns:rdf="http://www.w3.org/1999/02/22-rdf-syntax-ns#"
   xmlns:svg="http://www.w3.org/2000/svg"
   xmlns="http://www.w3.org/2000/svg"
   xmlns:sodipodi="http://sodipodi.sourceforge.net/DTD/sodipodi-0.dtd"
   xmlns:inkscape="http://www.inkscape.org/namespaces/inkscape"
   width="16px"
   height="16px"
   id="svg6099"
   version="1.1"
   inkscape:version="0.48.1 "
   sodipodi:docname="Nouveau document 11">
  <defs
     id="defs6101" />
  <sodipodi:namedview
     id="base"
     pagecolor="#ffffff"
     bordercolor="#666666"
     borderopacity="1.0"
     inkscape:pageopacity="0.0"
     inkscape:pageshadow="2"
     inkscape:zoom="29.00455"
     inkscape:cx="8.3330086"
     inkscape:cy="5.8210327"
     inkscape:current-layer="layer1"
     showgrid="true"
     inkscape:grid-bbox="true"
     inkscape:document-units="px"
     inkscape:object-paths="true"
     inkscape:window-width="1600"
     inkscape:window-height="838"
     inkscape:window-x="-8"
     inkscape:window-y="-8"
     inkscape:window-maximized="1">
    <inkscape:grid
       type="xygrid"
       id="grid6107" />
  </sodipodi:namedview>
  <metadata
     id="metadata6104">
    <rdf:RDF>
      <cc:Work
         rdf:about="">
        <dc:format>image/svg+xml</dc:format>
        <dc:type
           rdf:resource="http://purl.org/dc/dcmitype/StillImage" />
        <dc:title></dc:title>
      </cc:Work>
    </rdf:RDF>
  </metadata>
  <g
     id="layer1"
     inkscape:label="Layer 1"
     inkscape:groupmode="layer">
    <rect
       style="fill:#ff0000;fill-rule:evenodd;stroke:none"
       id="rect6109"
       width="16"
       height="3"
       x="0"
       y="13" />
    <g
       id="g6679"
       transform="matrix(1,0,0,1.4208333,0,-3.2161457)">
      <path
         transform="matrix(1.7355372,0,0,1.875,-2.4132232,2.5)"
         sodipodi:type="arc"
         style="fill:#93a7ac;fill-opacity:1;stroke:none"
         id="path6628"
         sodipodi:cx="6"
         sodipodi:cy="4.5"
         sodipodi:rx="3"
         sodipodi:ry="0.5"
         d="M 9,4.5 C 9,4.7761424 7.6568542,5 6,5 4.3431458,5 3,4.7761424 3,4.5 3,4.2238576 4.3431458,4 6,4 7.6568542,4 9,4.2238576 9,4.5 z" />
      <rect
         y="5.3125"
         x="2.7933886"
         height="5.625"
         width="10.413223"
         id="rect6630"
         style="fill:#93a7ac;fill-opacity:1;fill-rule:evenodd;stroke:none" />
      <path
         transform="matrix(1.7355372,0,0,1.875,-2.4132232,-3.125)"
         inkscape:transform-center-y="2.5"
         d="M 9,4.5 C 9,4.7761424 7.6568542,5 6,5 4.3431458,5 3,4.7761424 3,4.5 3,4.2238576 4.3431458,4 6,4 7.6568542,4 9,4.2238576 9,4.5 z"
         sodipodi:ry="0.5"
         sodipodi:rx="3"
         sodipodi:cy="4.5"
         sodipodi:cx="6"
         id="path6632"
         style="fill:#00112b;fill-opacity:1;stroke:none"
         sodipodi:type="arc" />
      <rect
         rx="2.6322312"
         ry="0.75"
         y="5.875"
         x="9.7355375"
         height="1.5"
         width="5.2644625"
         id="rect6639"
         style="fill:#93a7ac;fill-opacity:1;fill-rule:evenodd;stroke:none" />
      <rect
         style="fill:#93a7ac;fill-opacity:1;fill-rule:evenodd;stroke:none"
         id="rect6675"
         width="5.7355371"
         height="1.5"
         x="1"
         y="5.875"
         ry="0.75"
         rx="2.8677685" />
      <path
         sodipodi:type="arc"
         style="fill:#00112b;fill-opacity:1;stroke:none"
         id="path6677"
         sodipodi:cx="6"
         sodipodi:cy="4.5"
         sodipodi:rx="3"
         sodipodi:ry="0.5"
         d="M 9,4.5 C 9,4.7761424 7.6568542,5 6,5 4.3431458,5 3,4.7761424 3,4.5 3,4.2238576 4.3431458,4 6,4 7.6568542,4 9,4.2238576 9,4.5 z"
         inkscape:transform-center-y="2.5"
         transform="matrix(1.7355372,0,0,1.875,-2.4132232,-3.125)" />
    </g>
  </g>
</svg>
