<?xml version="1.0" encoding="UTF-8" standalone="no"?>
<!-- Created with Inkscape (http://www.inkscape.org/) -->

<svg
   xmlns:dc="http://purl.org/dc/elements/1.1/"
   xmlns:cc="http://creativecommons.org/ns#"
   xmlns:rdf="http://www.w3.org/1999/02/22-rdf-syntax-ns#"
   xmlns:svg="http://www.w3.org/2000/svg"
   xmlns="http://www.w3.org/2000/svg"
   xmlns:sodipodi="http://sodipodi.sourceforge.net/DTD/sodipodi-0.dtd"
   xmlns:inkscape="http://www.inkscape.org/namespaces/inkscape"
   width="16px"
   height="16px"
   id="svg7283"
   version="1.1"
   inkscape:version="0.48.1 "
   sodipodi:docname="Matiere_premiere_to_validate_v3.png">
  <defs
     id="defs7285">
    <inkscape:perspective
       sodipodi:type="inkscape:persp3d"
       inkscape:vp_x="3.4374626 : 2.7097206 : 1"
       inkscape:vp_y="0 : 1000 : 0"
       inkscape:vp_z="13.488946 : 7.9512417 : 1"
       inkscape:persp3d-origin="8 : 5.3333333 : 1"
       id="perspective7297" />
  </defs>
  <sodipodi:namedview
     id="base"
     pagecolor="#ffffff"
     bordercolor="#666666"
     borderopacity="1.0"
     inkscape:pageopacity="0.0"
     inkscape:pageshadow="2"
     inkscape:zoom="26.798303"
     inkscape:cx="13.482932"
     inkscape:cy="11.139133"
     inkscape:current-layer="layer1"
     showgrid="true"
     inkscape:grid-bbox="true"
     inkscape:document-units="px"
     inkscape:window-width="1600"
     inkscape:window-height="838"
     inkscape:window-x="-8"
     inkscape:window-y="-8"
     inkscape:window-maximized="1">
    <inkscape:grid
       type="xygrid"
       id="grid7291" />
  </sodipodi:namedview>
  <metadata
     id="metadata7288">
    <rdf:RDF>
      <cc:Work
         rdf:about="">
        <dc:format>image/svg+xml</dc:format>
        <dc:type
           rdf:resource="http://purl.org/dc/dcmitype/StillImage" />
        <dc:title></dc:title>
      </cc:Work>
    </rdf:RDF>
  </metadata>
  <g
     id="layer1"
     inkscape:label="Layer 1"
     inkscape:groupmode="layer">
    <g
       id="g7915"
       style="fill:#c87137"
       transform="matrix(1.8535081,0,0,1.2,-12.176642,-2.8)">
      <rect
         style="fill:#c87137;fill-rule:evenodd;stroke:none"
         id="rect7905"
         width="1.1496639"
         height="2"
         x="11.425168"
         y="2"
         ry="0.42509642"
         rx="0.31013188" />
      <path
         d="m 14,5 c 0,1.1045695 -0.895431,2 -2,2 -1.104569,0 -2,-0.8954305 -2,-2 0,-1.1045695 0.895431,-2 2,-2 1.104569,0 2,0.8954305 2,2 z"
         sodipodi:ry="2"
         sodipodi:rx="2"
         sodipodi:cy="5"
         sodipodi:cx="12"
         id="path7913"
         style="fill:#c87137;fill-opacity:1;stroke:none"
         sodipodi:type="arc" />
    </g>
    <rect
       style="color:#000000;fill:#ffcc00;fill-opacity:1;fill-rule:evenodd;stroke:none;stroke-width:1px;marker:none;visibility:visible;display:inline;overflow:visible;enable-background:accumulate"
       id="rect7947"
       width="16"
       height="3"
       x="0"
       y="13"
       rx="0"
       ry="1.4949816" />
    <g
       id="g3020">
      <g
         id="g3017">
        <g
           id="g3024">
          <path
             sodipodi:nodetypes="scczcsss"
             inkscape:connector-curvature="0"
             id="rect7949"
             d="M 0,3.7142857 0,2 c 0.94444445,-2.5714286 4.7222222,-2.14285707 4.7222223,0.8571429 0,3 11.8055557,8.5714281 12.2777777,9.4285711 C 17.472223,13.142857 16.055556,14 16.055556,14 c 0,0 -1e-6,0.857143 -2.833334,0 C 12.326244,13.728948 11.333333,13.428571 10.388889,13.142857 1.8888889,10.571429 1.263474e-8,4.1830511 0,3.7142857 z"
             style="color:#000000;fill:#165016;fill-opacity:1;fill-rule:evenodd;stroke:none;stroke-width:1px;marker:none;visibility:visible;display:inline;overflow:visible;enable-background:accumulate" />
        </g>
      </g>
    </g>
    <g
       transform="matrix(1.143708,0,0,1,0.93294391,3)"
       id="g7957"
       style="fill:#d38d5f">
      <rect
         style="fill:#d38d5f;fill-rule:evenodd;stroke:none"
         id="rect7959"
         width="1.1496639"
         height="2"
         x="11.425168"
         y="2"
         ry="0.51011568"
         rx="0.50260377" />
      <path
         d="m 14,5 c 0,1.1045695 -0.895431,2 -2,2 -1.104569,0 -2,-0.8954305 -2,-2 0,-1.1045695 0.895431,-2 2,-2 1.104569,0 2,0.8954305 2,2 z"
         sodipodi:ry="2"
         sodipodi:rx="2"
         sodipodi:cy="5"
         sodipodi:cx="12"
         id="path7961"
         style="fill:#d38d5f;fill-opacity:1;stroke:none"
         sodipodi:type="arc" />
    </g>
  </g>
</svg>
