<?xml version="1.0" encoding="UTF-8" standalone="no"?>
<!-- Created with Inkscape (http://www.inkscape.org/) -->

<svg
   xmlns:dc="http://purl.org/dc/elements/1.1/"
   xmlns:cc="http://creativecommons.org/ns#"
   xmlns:rdf="http://www.w3.org/1999/02/22-rdf-syntax-ns#"
   xmlns:svg="http://www.w3.org/2000/svg"
   xmlns="http://www.w3.org/2000/svg"
   xmlns:sodipodi="http://sodipodi.sourceforge.net/DTD/sodipodi-0.dtd"
   xmlns:inkscape="http://www.inkscape.org/namespaces/inkscape"
   width="16px"
   height="16px"
   id="svg6687"
   version="1.1"
   inkscape:version="0.48.1 "
   sodipodi:docname="Nouveau document 13">
  <defs
     id="defs6689" />
  <sodipodi:namedview
     id="base"
     pagecolor="#ffffff"
     bordercolor="#666666"
     borderopacity="1.0"
     inkscape:pageopacity="0.0"
     inkscape:pageshadow="2"
     inkscape:zoom="29.00455"
     inkscape:cx="7.6362341"
     inkscape:cy="7.2097607"
     inkscape:current-layer="layer1"
     showgrid="true"
     inkscape:grid-bbox="true"
     inkscape:document-units="px"
     inkscape:window-width="1600"
     inkscape:window-height="838"
     inkscape:window-x="-8"
     inkscape:window-y="-8"
     inkscape:window-maximized="1">
    <inkscape:grid
       type="xygrid"
       id="grid6695" />
  </sodipodi:namedview>
  <metadata
     id="metadata6692">
    <rdf:RDF>
      <cc:Work
         rdf:about="">
        <dc:format>image/svg+xml</dc:format>
        <dc:type
           rdf:resource="http://purl.org/dc/dcmitype/StillImage" />
        <dc:title></dc:title>
      </cc:Work>
    </rdf:RDF>
  </metadata>
  <g
     id="layer1"
     inkscape:label="Layer 1"
     inkscape:groupmode="layer">
    <g
       id="g7222"
       transform="matrix(0.78125002,0,-8.3333336e-8,1.25,1.7500004,-1.125)">
      <g
         id="g7226">
        <path
           transform="matrix(1.3333333,0,0,1.25,-3.9999997,-3.5)"
           d="m 15,9 c 0,1.104569 -2.686292,2 -6,2 C 5.6862915,11 3,10.104569 3,9 3,7.8954305 5.6862915,7 9,7 c 3.313708,0 6,0.8954305 6,2 z"
           sodipodi:ry="2"
           sodipodi:rx="6"
           sodipodi:cy="9"
           sodipodi:cx="9"
           id="path6697"
           style="fill:#2d1650;fill-opacity:1;stroke:none"
           sodipodi:type="arc" />
        <path
           transform="matrix(0.88888887,0,0,0.625,2e-7,2.125)"
           d="m 15,9 c 0,1.104569 -2.686292,2 -6,2 C 5.6862915,11 3,10.104569 3,9 3,7.8954305 5.6862915,7 9,7 c 3.313708,0 6,0.8954305 6,2 z"
           sodipodi:ry="2"
           sodipodi:rx="6"
           sodipodi:cy="9"
           sodipodi:cx="9"
           id="path6704"
           style="fill:#ececec;fill-opacity:1;stroke:none"
           sodipodi:type="arc" />
      </g>
    </g>
    <rect
       style="fill:#ff0000;fill-rule:evenodd;stroke:none"
       id="rect6710"
       width="16"
       height="3"
       x="0"
       y="13"
       rx="0"
       ry="0.75" />
    <g
       id="g7276"
       transform="matrix(0.74999998,0,0,0.96326531,1.625,-0.3244898)">
      <rect
         rx="0"
         ry="0.9375"
         y="1.375"
         x="0.5"
         height="3.75"
         width="3"
         id="rect7230"
         style="fill:#d7e3f4;fill-rule:evenodd;stroke:none" />
      <path
         transform="matrix(1,0,0,1.25,-5.5,-1.75)"
         d="M 9,2.5 C 9,2.7761424 8.3284271,3 7.5,3 6.6715729,3 6,2.7761424 6,2.5 6,2.2238576 6.6715729,2 7.5,2 8.3284271,2 9,2.2238576 9,2.5 z"
         sodipodi:ry="0.5"
         sodipodi:rx="1.5"
         sodipodi:cy="2.5"
         sodipodi:cx="7.5"
         id="path7235"
         style="fill:#afc6e9;fill-opacity:1;stroke:none"
         sodipodi:type="arc" />
      <path
         sodipodi:type="arc"
         style="fill:#d7e3f4;fill-opacity:1;stroke:none"
         id="path7239"
         sodipodi:cx="7.5"
         sodipodi:cy="2.5"
         sodipodi:rx="1.5"
         sodipodi:ry="0.5"
         d="M 9,2.5 C 9,2.7761424 8.3284271,3 7.5,3 6.6715729,3 6,2.7761424 6,2.5 6,2.2238576 6.6715729,2 7.5,2 8.3284271,2 9,2.2238576 9,2.5 z"
         transform="matrix(1,0,0,1.25,-5.5,2)" />
    </g>
    <rect
       transform="matrix(-0.24649342,-0.96914446,0.96522341,-0.26142643,0,0)"
       ry="0.48424014"
       y="-1.7256596"
       x="-11.766379"
       height="1.0330456"
       width="5.0090098"
       id="rect7268"
       style="fill:#53676c;fill-rule:evenodd;stroke:none" />
    <rect
       style="fill:#53676c;fill-rule:evenodd;stroke:none"
       id="rect7281"
       width="5.0090098"
       height="1.0330456"
       x="-15.426785"
       y="11.84398"
       ry="0.48424014"
       transform="matrix(-0.24649342,-0.96914446,0.96522341,-0.26142643,0,0)" />
  </g>
</svg>
