<?xml version="1.0" encoding="UTF-8" standalone="no"?>
<!-- Created with Inkscape (http://www.inkscape.org/) -->

<svg
   xmlns:dc="http://purl.org/dc/elements/1.1/"
   xmlns:cc="http://creativecommons.org/ns#"
   xmlns:rdf="http://www.w3.org/1999/02/22-rdf-syntax-ns#"
   xmlns:svg="http://www.w3.org/2000/svg"
   xmlns="http://www.w3.org/2000/svg"
   xmlns:sodipodi="http://sodipodi.sourceforge.net/DTD/sodipodi-0.dtd"
   xmlns:inkscape="http://www.inkscape.org/namespaces/inkscape"
   width="16px"
   height="16px"
   id="svg6687"
   version="1.1"
   inkscape:version="0.48.1 "
   sodipodi:docname="Produit_fini_v2.svg">
  <defs
     id="defs6689" />
  <sodipodi:namedview
     id="base"
     pagecolor="#ffffff"
     bordercolor="#666666"
     borderopacity="1.0"
     inkscape:pageopacity="0.0"
     inkscape:pageshadow="2"
     inkscape:zoom="75.797047"
     inkscape:cx="8.6614512"
     inkscape:cy="7.2097607"
     inkscape:current-layer="layer1"
     showgrid="true"
     inkscape:grid-bbox="true"
     inkscape:document-units="px"
     inkscape:window-width="1600"
     inkscape:window-height="838"
     inkscape:window-x="-8"
     inkscape:window-y="-8"
     inkscape:window-maximized="1">
    <inkscape:grid
       type="xygrid"
       id="grid6695" />
  </sodipodi:namedview>
  <metadata
     id="metadata6692">
    <rdf:RDF>
      <cc:Work
         rdf:about="">
        <dc:format>image/svg+xml</dc:format>
        <dc:type
           rdf:resource="http://purl.org/dc/dcmitype/StillImage" />
        <dc:title></dc:title>
      </cc:Work>
    </rdf:RDF>
  </metadata>
  <g
     id="layer1"
     inkscape:label="Layer 1"
     inkscape:groupmode="layer">
    <rect
       style="fill:#ff0000;fill-rule:evenodd;stroke:none"
       id="rect6710"
       width="16"
       height="3"
       x="0"
       y="13"
       rx="0"
       ry="0.75" />
    <rect
       transform="matrix(-0.34098166,-0.94006995,0.76700327,-0.64164319,0,0)"
       ry="0.41982761"
       y="-3.2220623"
       x="-13.964076"
       height="1.1242588"
       width="9.4164162"
       id="rect7268"
       style="fill:#4d4d4d;fill-rule:evenodd;stroke:none"
       rx="0.47638282" />
    <g
       id="g3034"
       transform="translate(-0.12500059,-0.3359376)">
      <path
         inkscape:transform-center-y="0.73684211"
         transform="matrix(1.0208334,0,-1.0208334e-7,3,-1.0624992,-18)"
         d="m 15,9 c 0,1.104569 -2.686292,2 -6,2 C 5.6862915,11 3,10.104569 3,9 3,7.8954305 5.6862915,7 9,7 c 3.313708,0 6,0.8954305 6,2 z"
         sodipodi:ry="2"
         sodipodi:rx="6"
         sodipodi:cy="9"
         sodipodi:cx="9"
         id="path3025"
         style="fill:#2d1650;fill-opacity:1;stroke:none"
         sodipodi:type="arc" />
      <path
         inkscape:transform-center-y="0.89994478"
         transform="matrix(0.69444445,0,-5.2083335e-8,1.8320312,1.8750009,-7.4882808)"
         d="m 15,9 c 0,1.104569 -2.686292,2 -6,2 C 5.6862915,11 3,10.104569 3,9 3,7.8954305 5.6862915,7 9,7 c 3.313708,0 6,0.8954305 6,2 z"
         sodipodi:ry="2"
         sodipodi:rx="6"
         sodipodi:cy="9"
         sodipodi:cx="9"
         id="path3027"
         style="fill:#ececec;fill-opacity:1;stroke:none"
         sodipodi:type="arc" />
    </g>
    <rect
       rx="0.47638282"
       style="fill:#666666;fill-rule:evenodd;stroke:none"
       id="rect3038"
       width="9.4164162"
       height="1.1242588"
       x="-19.767469"
       y="12.252028"
       ry="0.41982761"
       transform="matrix(-0.34098166,-0.94006995,0.76700327,-0.64164319,0,0)" />
  </g>
</svg>
