<?xml version="1.0" encoding="UTF-8" standalone="no"?>
<!-- Created with Inkscape (http://www.inkscape.org/) -->

<svg
   xmlns:osb="http://www.openswatchbook.org/uri/2009/osb"
   xmlns:dc="http://purl.org/dc/elements/1.1/"
   xmlns:cc="http://creativecommons.org/ns#"
   xmlns:rdf="http://www.w3.org/1999/02/22-rdf-syntax-ns#"
   xmlns:svg="http://www.w3.org/2000/svg"
   xmlns="http://www.w3.org/2000/svg"
   xmlns:sodipodi="http://sodipodi.sourceforge.net/DTD/sodipodi-0.dtd"
   xmlns:inkscape="http://www.inkscape.org/namespaces/inkscape"
   width="16px"
   height="16px"
   id="svg3827"
   version="1.1"
   inkscape:version="0.48.1 "
   sodipodi:docname="emballage.svg">
  <defs
     id="defs3829">
    <linearGradient
       id="linearGradient4449"
       osb:paint="solid">
      <stop
         style="stop-color:#5e6668;stop-opacity:1;"
         offset="0"
         id="stop4451" />
    </linearGradient>
  </defs>
  <sodipodi:namedview
     id="base"
     pagecolor="#ffffff"
     bordercolor="#666666"
     borderopacity="1.0"
     inkscape:pageopacity="0.0"
     inkscape:pageshadow="2"
     inkscape:zoom="22.627417"
     inkscape:cx="11.333907"
     inkscape:cy="9.5629386"
     inkscape:current-layer="layer1"
     showgrid="true"
     inkscape:grid-bbox="true"
     inkscape:document-units="px"
     inkscape:window-width="1600"
     inkscape:window-height="838"
     inkscape:window-x="-8"
     inkscape:window-y="-8"
     inkscape:window-maximized="1">
    <inkscape:grid
       type="xygrid"
       id="grid3835" />
  </sodipodi:namedview>
  <metadata
     id="metadata3832">
    <rdf:RDF>
      <cc:Work
         rdf:about="">
        <dc:format>image/svg+xml</dc:format>
        <dc:type
           rdf:resource="http://purl.org/dc/dcmitype/StillImage" />
        <dc:title></dc:title>
      </cc:Work>
    </rdf:RDF>
  </metadata>
  <g
     id="layer1"
     inkscape:label="Layer 1"
     inkscape:groupmode="layer">
    <rect
       style="fill:#ff0000"
       id="rect3917"
       width="16"
       height="3"
       x="0"
       y="13"
       ry="0" />
    <g
       id="g5910"
       transform="matrix(1.25,0,0,1.1538462,7.25,-1.7928998)">
      <g
         style="fill:#00aad4"
         transform="translate(-2,0)"
         id="g3892">
        <g
           id="g3878"
           transform="translate(1,-1)"
           style="fill:#00aad4">
          <rect
             style="fill:#00aad4"
             id="rect3882"
             width="4"
             height="3"
             x="3"
             y="5"
             rx="1"
             ry="1.5" />
          <rect
             ry="1.5"
             rx="1"
             y="5"
             x="3"
             height="3"
             width="4"
             id="rect3884"
             style="fill:#00aad4" />
          <g
             style="fill:#5599ff"
             id="g3921" />
          <g
             id="g3929">
            <rect
               style="fill:#5599ff"
               id="rect3880"
               width="4"
               height="9"
               x="3"
               y="6"
               rx="2"
               ry="0.46753249" />
            <rect
               style="fill:#5599ff"
               id="rect3886"
               width="4"
               height="3"
               x="3"
               y="5"
               rx="1"
               ry="1.5" />
            <rect
               style="fill:#5599ff"
               id="rect3888"
               width="2"
               height="4"
               x="4"
               y="2"
               rx="0"
               ry="1.5" />
            <path
               transform="translate(-4,-0.5)"
               d="M 10,2.5 C 10,2.7761424 9.5522847,3 9,3 8.4477153,3 8,2.7761424 8,2.5 8,2.2238576 8.4477153,2 9,2 c 0.5522847,0 1,0.2238576 1,0.5 z"
               sodipodi:ry="0.5"
               sodipodi:rx="1"
               sodipodi:cy="2.5"
               sodipodi:cx="9"
               id="path3890"
               style="fill:#2a7fff"
               sodipodi:type="arc" />
          </g>
        </g>
      </g>
      <rect
         ry="0.5"
         y="5"
         x="3"
         height="8"
         width="1"
         id="rect3919"
         style="fill:#aaccff" />
    </g>
    <g
       transform="matrix(1,0,0,0.92899411,3,1.3550294)"
       id="g6031">
      <g
         id="g6033"
         transform="translate(-2,0)"
         style="fill:#00aad4">
        <g
           style="fill:#00aad4"
           transform="translate(1,-1)"
           id="g6035">
          <rect
             ry="1.5"
             rx="1"
             y="5"
             x="3"
             height="3"
             width="4"
             id="rect6037"
             style="fill:#00aad4" />
          <rect
             style="fill:#00aad4"
             id="rect6039"
             width="4"
             height="3"
             x="3"
             y="5"
             rx="1"
             ry="1.5" />
          <g
             id="g6041"
             style="fill:#5599ff" />
          <g
             id="g6043">
            <rect
               ry="0.46753249"
               rx="2"
               y="6"
               x="3"
               height="9"
               width="4"
               id="rect6045"
               style="fill:#5599ff" />
            <rect
               ry="1.5"
               rx="1"
               y="5"
               x="3"
               height="3"
               width="4"
               id="rect6047"
               style="fill:#5599ff" />
            <rect
               ry="1.5"
               rx="0"
               y="2"
               x="4"
               height="4"
               width="2"
               id="rect6049"
               style="fill:#5599ff" />
            <path
               sodipodi:type="arc"
               style="fill:#2a7fff"
               id="path6051"
               sodipodi:cx="9"
               sodipodi:cy="2.5"
               sodipodi:rx="1"
               sodipodi:ry="0.5"
               d="M 10,2.5 C 10,2.7761424 9.5522847,3 9,3 8.4477153,3 8,2.7761424 8,2.5 8,2.2238576 8.4477153,2 9,2 c 0.5522847,0 1,0.2238576 1,0.5 z"
               transform="translate(-4,-0.5)" />
          </g>
        </g>
      </g>
      <rect
         style="fill:#aaccff"
         id="rect6053"
         width="1"
         height="8"
         x="3"
         y="5"
         ry="0.5" />
    </g>
    <g
       transform="matrix(0.75,0,0,0.72189352,-0.5,4.2544377)"
       id="g6055">
      <g
         id="g6057"
         transform="translate(-2,0)"
         style="fill:#00aad4">
        <g
           style="fill:#00aad4"
           transform="translate(1,-1)"
           id="g6059">
          <rect
             ry="1.5"
             rx="1"
             y="5"
             x="3"
             height="3"
             width="4"
             id="rect6061"
             style="fill:#00aad4" />
          <rect
             style="fill:#00aad4"
             id="rect6063"
             width="4"
             height="3"
             x="3"
             y="5"
             rx="1"
             ry="1.5" />
          <g
             id="g6065"
             style="fill:#5599ff" />
          <g
             id="g6067">
            <rect
               ry="0.46753249"
               rx="2"
               y="6"
               x="3"
               height="9"
               width="4"
               id="rect6069"
               style="fill:#5599ff" />
            <rect
               ry="1.5"
               rx="1"
               y="5"
               x="3"
               height="3"
               width="4"
               id="rect6071"
               style="fill:#5599ff" />
            <rect
               ry="1.5"
               rx="0"
               y="2"
               x="4"
               height="4"
               width="2"
               id="rect6073"
               style="fill:#5599ff" />
            <path
               sodipodi:type="arc"
               style="fill:#2a7fff"
               id="path6075"
               sodipodi:cx="9"
               sodipodi:cy="2.5"
               sodipodi:rx="1"
               sodipodi:ry="0.5"
               d="M 10,2.5 C 10,2.7761424 9.5522847,3 9,3 8.4477153,3 8,2.7761424 8,2.5 8,2.2238576 8.4477153,2 9,2 c 0.5522847,0 1,0.2238576 1,0.5 z"
               transform="translate(-4,-0.5)" />
          </g>
        </g>
      </g>
      <rect
         style="fill:#aaccff"
         id="rect6077"
         width="1"
         height="8"
         x="3"
         y="5"
         ry="0.5" />
    </g>
  </g>
</svg>
